#!OML:ASF H:\SpeedWalk\Project 1\Capture day 2\Session 1\male.ASF
:FULLY-SPECIFIED
:DEGREES
167
root -7.955549 20.881731 -8.143889 4.730512 -0.704723 -0.400583
lowerback 12.787109 2.780395 -1.680201 
upperback -0.657952 3.524175 1.019698 
thorax -8.053646 1.802970 1.340645 
lowerneck -13.883967 -0.134220 1.228696 
upperneck 9.034512 -0.167768 -2.033369 
head 4.974959 -0.178830 -0.847329 
rclavicle 0.000000 0.000000 
rhumerus -26.725438 -14.666637 -82.428793 
rradius 30.672662 
rwrist -0.587890 
rhand -12.023398 -11.072621 
rfingers 0.000000 
rthumb 14.034442 -40.578839 
lclavicle 0.000000 0.000000 
lhumerus -37.775632 1.089067 87.327282 
lradius 42.144512 
lwrist -10.652071 
lhand -7.882367 15.503500 
lfingers 0.000000 
lthumb 18.022008 44.688484 
rfemur -12.026670 -7.601557 18.922542 
rtibia 63.893148 
rfoot 15.515949 -11.519857 
rtoes 14.516579 
lfemur -39.402188 -3.453562 -23.140486 
ltibia 59.172251 
lfoot -22.634410 4.108023 
ltoes 5.278064 
168
root -7.944146 20.958877 -8.018056 4.590204 -0.695635 -0.163788
lowerback 12.767616 2.744716 -1.844034 
upperback -0.656820 3.449198 0.984685 
thorax -8.045998 1.772755 1.411370 
lowerneck -13.913827 -0.122660 1.228574 
upperneck 9.165735 -0.146103 -2.070556 
head 5.021151 -0.171252 -0.857746 
rclavicle 0.000000 0.000000 
rhumerus -26.826663 -14.461686 -82.518004 
rradius 30.947011 
rwrist -0.794614 
rhand -12.011185 -10.973439 
rfingers 0.000000 
rthumb 14.046279 -40.478812 
lclavicle 0.000000 0.000000 
lhumerus -37.774786 1.047255 87.374394 
lradius 42.534147 
lwrist -10.361255 
lhand -8.014643 15.511844 
lfingers 0.000000 
lthumb 17.894753 44.708523 
rfemur -13.439445 -8.116136 18.567464 
rtibia 66.654792 
rfoot 13.734029 -11.498551 
rtoes 14.232987 
lfemur -38.053669 -3.682919 -23.465777 
ltibia 57.990934 
lfoot -22.577208 4.358558 
ltoes 5.273982 
169
root -7.933040 21.033007 -7.893137 4.448807 -0.697097 0.068147
lowerback 12.743409 2.708174 -2.006361 
upperback -0.656351 3.373848 0.954230 
thorax -8.036256 1.742393 1.486354 
lowerneck -13.948404 -0.107546 1.229564 
upperneck 9.303118 -0.119111 -2.112678 
head 5.070179 -0.161458 -0.869486 
rclavicle 0.000000 0.000000 
rhumerus -26.922175 -14.244446 -82.604060 
rradius 31.224366 
rwrist -1.019645 
rhand -11.983371 -10.908979 
rfingers 0.000000 
rthumb 14.073117 -40.412457 
lclavicle 0.000000 0.000000 
lhumerus -37.778343 1.016846 87.420769 
lradius 42.906244 
lwrist -10.074313 
lhand -8.149431 15.525652 
lfingers 0.000000 
lthumb 17.765061 44.734160 
rfemur -14.850396 -8.595033 18.229670 
rtibia 69.294094 
rfoot 12.012302 -11.483465 
rtoes 13.740335 
lfemur -36.717530 -3.890629 -23.789628 
ltibia 56.812513 
lfoot -22.517818 4.596503 
ltoes 5.285613 
170
root -7.922312 21.104119 -7.769070 4.306802 -0.707386 0.297703
lowerback 12.715271 2.670930 -2.169892 
upperback -0.656558 3.297833 0.927161 
thorax -8.024965 1.711833 1.565886 
lowerneck -13.986883 -0.089733 1.231366 
upperneck 9.443801 -0.088079 -2.158234 
head 5.120992 -0.149981 -0.882120 
rclavicle 0.000000 0.000000 
rhumerus -27.013031 -14.022614 -82.684656 
rradius 31.502476 
rwrist -1.254290 
rhand -11.934028 -10.890693 
rfingers 0.000000 
rthumb 14.120638 -40.390852 
lclavicle 0.000000 0.000000 
lhumerus -37.785561 0.994921 87.466067 
lradius 43.258450 
lwrist -9.796857 
lhand -8.288779 15.524925 
lfingers 0.000000 
lthumb 17.630960 44.745520 
rfemur -16.256772 -9.035849 17.906832 
rtibia 71.797951 
rfoot 10.366202 -11.446997 
rtoes 13.071306 
lfemur -35.394998 -4.077323 -24.115091 
ltibia 55.639909 
lfoot -22.464809 4.822598 
ltoes 5.340873 
171
root -7.911947 21.171829 -7.646120 4.163584 -0.725941 0.523632
lowerback 12.684814 2.632875 -2.332258 
upperback -0.657988 3.221276 0.902504 
thorax -8.013378 1.681010 1.647482 
lowerneck -14.025430 -0.069911 1.234036 
upperneck 9.585424 -0.054325 -2.204090 
head 5.172224 -0.137225 -0.894760 
rclavicle 0.000000 0.000000 
rhumerus -27.102711 -13.801048 -82.758468 
rradius 31.779303 
rwrist -1.491940 
rhand -11.866701 -10.916368 
rfingers 0.000000 
rthumb 14.185464 -40.411995 
lclavicle 0.000000 0.000000 
lhumerus -37.796582 0.979927 87.508917 
lradius 43.585828 
lwrist -9.532366 
lhand -8.433216 15.509135 
lfingers 0.000000 
lthumb 17.491968 44.742157 
rfemur -17.649007 -9.436970 17.599589 
rtibia 74.148454 
rfoot 8.803390 -11.353825 
rtoes 12.265717 
lfemur -34.087283 -4.245970 -24.439872 
ltibia 54.479593 
lfoot -22.420992 5.039683 
ltoes 5.437428 
